<svg id="Layer_1" data-name="Layer 1" xmlns="http://www.w3.org/2000/svg" viewBox="0 0 512 512"><defs><style>.cls-1{fill:#e8e8e8;}</style></defs><rect class="cls-1" x="-345.57" y="249.68" width="1203" height="13" transform="translate(-106.19 256) rotate(-45)"/><rect class="cls-1" x="-327.9" y="267.35" width="1203" height="13" transform="translate(-113.51 273.68) rotate(-45)"/><rect class="cls-1" x="-309.86" y="285.39" width="1203" height="13" transform="translate(-120.98 291.71) rotate(-45)"/><rect class="cls-1" x="-292.19" y="303.06" width="1203" height="13" transform="translate(-128.3 309.39) rotate(-45)"/><rect class="cls-1" x="-274.16" y="321.09" width="1203" height="13" transform="translate(-135.77 327.42) rotate(-45)"/><rect class="cls-1" x="-256.48" y="338.77" width="1203" height="13" transform="translate(-143.09 345.1) rotate(-45)"/><rect class="cls-1" x="-238.45" y="356.8" width="1203" height="13" transform="translate(-150.56 363.13) rotate(-45)"/><rect class="cls-1" x="-220.77" y="374.48" width="1203" height="13" transform="translate(-157.88 380.8) rotate(-45)"/><rect class="cls-1" x="-202.74" y="392.51" width="1203" height="13" transform="translate(-165.35 398.84) rotate(-45)"/><rect class="cls-1" x="-185.06" y="410.19" width="1203" height="13" transform="translate(-172.67 416.51) rotate(-45)"/><rect class="cls-1" x="-167.03" y="428.22" width="1203" height="13" transform="translate(-180.14 434.54) rotate(-45)"/><rect class="cls-1" x="-149.35" y="445.9" width="1203" height="13" transform="translate(-187.46 452.22) rotate(-45)"/><rect class="cls-1" x="-131.32" y="463.93" width="1203" height="13" transform="translate(-194.93 470.25) rotate(-45)"/><rect class="cls-1" x="-113.64" y="481.61" width="1203" height="13" transform="translate(-202.25 487.93) rotate(-45)"/><rect class="cls-1" x="-95.61" y="499.64" width="1203" height="13" transform="translate(-209.72 505.96) rotate(-45)"/><rect class="cls-1" x="-77.93" y="517.32" width="1203" height="13" transform="translate(-217.05 523.64) rotate(-45)"/><rect class="cls-1" x="-613.57" y="-18.32" width="1203" height="13" transform="translate(4.82 -11.99) rotate(-45)"/><rect class="cls-1" x="-595.89" y="-0.64" width="1203" height="13" transform="translate(-2.5 5.68) rotate(-45)"/><rect class="cls-1" x="-577.86" y="17.39" width="1203" height="13" transform="translate(-9.97 23.72) rotate(-45)"/><rect class="cls-1" x="-560.18" y="35.07" width="1203" height="13" transform="translate(-17.29 41.39) rotate(-45)"/><rect class="cls-1" x="-542.15" y="53.1" width="1203" height="13" transform="translate(-24.76 59.42) rotate(-45)"/><rect class="cls-1" x="-524.47" y="70.78" width="1203" height="13" transform="translate(-32.08 77.1) rotate(-45)"/><rect class="cls-1" x="-506.44" y="88.81" width="1203" height="13" transform="translate(-39.55 95.13) rotate(-45)"/><rect class="cls-1" x="-488.76" y="106.49" width="1203" height="13" transform="translate(-46.87 112.81) rotate(-45)"/><rect class="cls-1" x="-470.73" y="124.52" width="1203" height="13" transform="translate(-54.34 130.84) rotate(-45)"/><rect class="cls-1" x="-453.05" y="142.2" width="1203" height="13" transform="translate(-61.67 148.52) rotate(-45)"/><rect class="cls-1" x="-435.02" y="160.23" width="1203" height="13" transform="translate(-69.13 166.55) rotate(-45)"/><rect class="cls-1" x="-417.34" y="177.91" width="1203" height="13" transform="translate(-76.46 184.23) rotate(-45)"/><rect class="cls-1" x="-399.31" y="195.94" width="1203" height="13" transform="translate(-83.93 202.26) rotate(-45)"/><rect class="cls-1" x="-381.64" y="213.61" width="1203" height="13" transform="translate(-91.25 219.94) rotate(-45)"/><rect class="cls-1" x="-363.6" y="231.65" width="1203" height="13" transform="translate(-98.72 237.97) rotate(-45)"/><rect class="cls-1" x="-345.93" y="249.32" width="1203" height="13" transform="translate(-106.04 255.65) rotate(-45)"/></svg>